<?xml version="1.0" encoding="utf-8"?>
<!-- Generator: Adobe Illustrator 26.0.1, SVG Export Plug-In . SVG Version: 6.00 Build 0)  -->
<svg version="1.1" id="Calque_1" xmlns="http://www.w3.org/2000/svg" xmlns:xlink="http://www.w3.org/1999/xlink" x="0px" y="0px"
	 viewBox="0 0 1366 768" style="enable-background:new 0 0 1366 768;" xml:space="preserve">
<style type="text/css">
	.st0{fill:#00B2C4;}
</style>
<g>
	<path class="st0" d="M710.54,321.75c-14.47,0-28.63,0-43.03,0c0-11.81,0-23.55,0-35.46c14.32,0,28.6,0,43.03,0
		C710.54,298.13,710.54,309.81,710.54,321.75z"/>
	<path class="st0" d="M771.81,286.3c0,11.87,0,23.5,0,35.33c-14.26,0-28.45,0-42.88,0c0-11.7,0-23.43,0-35.33
		C743.18,286.3,757.37,286.3,771.81,286.3z"/>
	<path class="st0" d="M729.03,342.76v84.28c0,6.51-5.28,11.79-11.79,11.79h-68.48c-6.51,0-11.79-5.28-11.79-11.79v-41.39h51.9
		v-42.88h-51.9V286.3h-42.88v171.84c0,13.02,10.55,23.57,23.57,23.57h130.67c13.02,0,23.57-10.55,23.57-23.57V342.76H729.03z"/>
</g>
</svg>
