<svg version="1.2" xmlns="http://www.w3.org/2000/svg" viewBox="0 0 1366 768" width="1366" height="768">
	<title>Logo-svg-svg</title>
	<style>
		.s0 { fill: #00b2c4 } 
		.s1 { fill: #ffffff } 
	</style>
	<g id="Layer">
		<g id="Layer">
			<g id="Layer">
				<g id="Layer">
					<g id="Layer">
						<path id="Layer" class="s0" d="m1188.3 185.4c-32.4 0-64.2 0-96.6 0 0-26.4 0-52.8 0-79.6 32.2 0 64.3 0 96.6 0 0 26.6 0 52.8 0 79.6z"/>
					</g>
					<g id="Layer">
						<path id="Layer" class="s0" d="m1325.8 105.8c0 26.7 0 52.8 0 79.4-32 0-63.8 0-96.3 0 0-26.4 0-52.6 0-79.4 32 0 63.9 0 96.3 0z"/>
					</g>
					<g id="Layer">
						<path id="Layer" class="s0" d="m1326 232.5v259c0 29.1-23.6 52.7-52.9 52.7h-293.2c-29.1 0-52.9-23.6-52.9-52.7v-385.7h96.3v126.7h116.4v96.3h-116.4v92.9c0 14.5 11.8 26.3 26.4 26.3h153.6c14.7 0 26.5-11.8 26.5-26.3v-189.2z"/>
					</g>
				</g>
				<g id="Layer">
					<path id="Layer" class="s0" d="m394.3 495.8c-11.2-0.1-22-2.1-27.3-13.3-5.9-12.6-5.8-25.6 1.7-37.7 4-6.5 10.8-9.2 18-10 4.9-0.6 9.9-0.7 14.8 0 14.1 2.1 21.5 9.8 22.9 24.3 0.6 5.4 0.5 11.1-0.6 16.3-2.8 13.7-12.9 20.4-29.5 20.4z"/>
				</g>
			</g>
		</g>
		<g id="Layer">
			<g id="Layer">
				<path id="Layer" fill-rule="evenodd" class="s1" d="m863.3 459.5c0 14.6-12 26.5-26.6 26.5h-55.5c-11.4 0-21.8-6.7-26.6-17.1l-4.6 5.9c-5.5 7.1-13.9 11.2-22.9 11.2l-56.8 0.1v32.6c0 14.7-11.9 26.6-26.5 26.6h-45v-37.7c3.2 0 11.9 0 19.3 0 6.9 0 12.4-5.4 12.4-12.2v-9.3h-70.2c-14.7 0-26.6-11.9-26.6-26.5v-74.6c0-14.7 11.9-26.6 26.6-26.6h110v90.7h35.5c7.4 0 13.5-6.1 13.5-13.6l0.5-76.6h40.3v76.6c0 7.4 6.1 13.6 13.7 13.6h35.9c7.5 0 13.7-6.2 13.7-13.6v-76.6h39.9zm-232.8-63h-49.3c-4 0-7.3 3.2-7.3 7.3v37.9c0 4.1 3.3 7.4 7.3 7.4h49.3z"/>
				<path id="Layer" class="s1" d="m450.7 545.3v-37.5h12.8c6.9 0 12.6-5.8 12.6-12.8v-123.9h40.4v161.4c0 7.1-5.7 12.8-12.7 12.8z"/>
				<path id="Layer" class="s1" d="m690.5 537.3c0-10.8 0-21.5 0-32.5 13.2 0 26.2 0 39.6 0 0 10.7 0 21.4 0 32.5-13.1 0-26.1 0-39.6 0z"/>
				<path id="Layer" class="s1" d="m823.5 338.8c0-11 0-21.6 0-32.6 13.1 0 26 0 39.3 0q0 15.9 0 32.6c-12.9 0-25.7 0-39.3 0z"/>
				<path id="Layer" class="s1" d="m516.2 350.9c-13.2 0-26 0-39.4 0 0-10.8 0-21.4 0-32.5 13 0 26.1 0 39.4 0 0 10.6 0 21.3 0 32.5z"/>
				<path id="Layer" class="s1" d="m747.1 504.6c13.2 0 26 0 39.2 0 0 10.9 0 21.7 0 32.8-13.1 0-26 0-39.2 0q0-16.4 0-32.8z"/>
			</g>
			<g id="Layer">
				<path id="Layer" class="s1" d="m823.5 156.7h39.4l0.1 100.9c0 14.6-11.9 26.5-26.5 26.5h-110.3c-14.7 0-26.6-11.9-26.6-26.5l0.1-140.2h40.2v114.9c0 7.5 6 13.6 13.4 13.7l56.4 0.5c7.5 0 13.8-6.2 13.8-13.7z"/>
				<path id="Layer" class="s1" d="m559.8 283.9v-37h65.3c7.6 0 13.7-6 13.7-13.6v-25c0-7.4-6.1-13.6-13.7-13.6h-65.3v-37.6h92.2c14.8 0 26.6 11.9 26.6 26.5v74c0 14.7-11.9 26.6-26.6 26.5z"/>
				<path id="Layer" class="s1" d="m538.2 283.9c-13.1 0-25.9 0-39 0 0-55.4 0-110.7 0-166.4 12.9 0 25.8 0 39 0 0 55.3 0 110.5 0 166.4z"/>
				<path id="Layer" class="s1" d="m807.1 105.8c0 10.9 0 21.4 0 32.4-13.1 0-26.1 0-39.7 0 0-10.5 0-21.2 0-32.4 13 0 26 0 39.7 0z"/>
				<path id="Layer" class="s1" d="m863 138.5c-13.3 0-26.2 0-39.4 0 0-10.9 0-21.6 0-32.7 13.1 0 26.1 0 39.4 0 0 10.9 0 21.5 0 32.7z"/>
				<path id="Layer" fill-rule="evenodd" class="s1" d="m476.7 183v74.3c0 14.7-11.8 26.6-26.6 26.6h-54.8c-10.5-1-19.7-7.3-23.9-17l-4.8 6c-4.8 6.3-12 10.2-19.8 11l-30.9 0.1c-10.8-0.7-20.2-7.2-24.7-17.1l-4.6 6c-5.1 6.5-12.6 10.4-20.7 11.1h-30.4c-11-0.5-20.8-7-25.3-17.1l-4.6 6c-5.3 6.7-13.1 10.7-21.6 11.1l-27.8 0.1c-11.2-0.2-21.3-6.8-25.9-17.2l-4.6 6c-5.5 7-13.6 11.1-22.5 11.2h-50.6c-14.7 0-26.6-11.9-26.6-26.5v-140.1h40.3l0.1 120.7c0 4.5 3.6 8.1 8.1 8.1h12.8c4.5 0 8.2-3.6 8.2-8.1v-81.6h40.3v81.6c0 4.5 3.8 8.1 8.3 8.1h22.9c4.5 0 8.1-3.6 8.1-8.1v-81.6h40.5v81.6c0 4.5 3.7 8.1 8.2 8.1h23.5c4.5 0 8.1-3.6 8.1-8.1l0.1-81.6h40.4v81.6c0 4.5 3.7 8.1 8.3 8.1h23c4.6 0 8.3-3.5 8.3-8.1l0.1-55.2c0-14.6 11.9-26.4 26.6-26.4h87.9c14.7 0 26.6 11.8 26.6 26.4zm-100.8 59.6c0 2 1.6 3.6 3.6 3.6h54.3c2 0 3.6-1.6 3.6-3.6v-44.9c0-1.9-1.6-3.6-3.6-3.6h-54.3c-2 0-3.6 1.7-3.6 3.6z"/>
			</g>
		</g>
	</g>
</svg>