<?xml version="1.0" encoding="utf-8"?>
<!-- Generator: Adobe Illustrator 26.0.1, SVG Export Plug-In . SVG Version: 6.00 Build 0)  -->
<svg version="1.1" id="Calque_1" xmlns="http://www.w3.org/2000/svg" xmlns:xlink="http://www.w3.org/1999/xlink" x="0px" y="0px"
	 viewBox="0 0 1366 768" style="enable-background:new 0 0 1366 768;" xml:space="preserve">
<style type="text/css">
	.st0{fill:#00B2C4;}
	.st1{fill:#FFFFFF;}
</style>
<g>
	<g>
		<g>
			<g>
				<g>
					<path class="st0" d="M911.83,321.4c-14.5,0-28.69,0-43.12,0c0-11.83,0-23.6,0-35.53c14.35,0,28.66,0,43.12,0
						C911.83,297.73,911.83,309.44,911.83,321.4z"/>
				</g>
				<g>
					<path class="st0" d="M973.23,285.87c0,11.9,0,23.55,0,35.41c-14.29,0-28.51,0-42.97,0c0-11.73,0-23.48,0-35.41
						C944.54,285.87,958.76,285.87,973.23,285.87z"/>
				</g>
				<g>
					<path class="st0" d="M930.36,342.45v84.45c0,6.52-5.29,11.81-11.81,11.81h-68.63c-6.52,0-11.81-5.29-11.81-11.81v-41.48h52.01
						v-42.97h-52.01v-56.58h-42.97v172.2c0,13.05,10.58,23.62,23.62,23.62h130.95c13.05,0,23.62-10.58,23.62-23.62V342.45H930.36z"
						/>
				</g>
			</g>
			<g>
				<path class="st0" d="M557.18,460.04c-5.02-0.04-9.82-0.92-12.18-5.97c-2.63-5.61-2.58-11.41,0.74-16.82
					c1.79-2.91,4.84-4.08,8.08-4.47c2.16-0.26,4.42-0.31,6.57,0.01c6.34,0.94,9.58,4.37,10.23,10.87c0.24,2.4,0.2,4.92-0.28,7.27
					C569.1,457.05,564.62,460.02,557.18,460.04z"/>
			</g>
		</g>
	</g>
	<g>
		<g>
			<path class="st1" d="M766.65,398.88h-17.81l-0.02,34.19c0,3.37-2.73,6.1-6.1,6.1h-16.07c-3.37,0-6.1-2.73-6.1-6.1l0-34.19h-17.98
				l-0.19,34.22c-0.02,3.36-2.74,6.07-6.1,6.07h-15.8v-40.49h-49.15c-6.55,0-11.86,5.31-11.86,11.86v33.31
				c0,6.55,5.31,11.86,11.86,11.86l31.35,0.02v4.1c0,3.05-2.46,5.51-5.51,5.51c-3.34,0-7.21,0-8.65,0v16.79h20.1
				c6.55,0,11.86-5.31,11.86-11.86V455.7l25.34-0.01c4.01,0,7.79-1.86,10.25-5.02l2.07-2.67l0,0c2.09,4.67,6.73,7.68,11.85,7.68
				l24.8-0.01c6.55,0,11.85-5.31,11.85-11.86V398.88z M662.68,439.17h-22c-1.81,0-3.27-1.47-3.27-3.27v-16.96
				c0-1.81,1.47-3.27,3.27-3.27h22V439.17z"/>
			<path class="st1" d="M582.39,482.13v-16.78h5.67c3.13,0,5.67-2.54,5.67-5.67v-55.34h18.04v72.12c0,3.13-2.54,5.67-5.67,5.67
				H582.39z"/>
			<path class="st1" d="M689.51,478.57c0-4.81,0-9.59,0-14.53c5.88,0,11.7,0,17.66,0c0,4.82,0,9.58,0,14.53
				C701.32,478.57,695.49,478.57,689.51,478.57z"/>
			<path class="st1" d="M748.89,389.91c0-4.9,0-9.66,0-14.57c5.85,0,11.6,0,17.56,0c0,4.77,0,9.59,0,14.57
				C760.69,389.91,754.94,389.91,748.89,389.91z"/>
			<path class="st1" d="M611.66,395.35c-5.91,0-11.66,0-17.6,0c0-4.86,0-9.63,0-14.58c5.79,0,11.61,0,17.6,0
				C611.66,385.53,611.66,390.3,611.66,395.35z"/>
			<path class="st1" d="M714.77,463.95c5.9,0,11.58,0,17.47,0c0,4.89,0,9.7,0,14.65c-5.81,0-11.56,0-17.47,0
				C714.77,473.73,714.77,468.85,714.77,463.95z"/>
		</g>
		<g>
			<path class="st1" d="M748.85,308.59h17.65l0.02,45.03c0,6.55-5.31,11.86-11.86,11.86h-49.25c-6.55,0-11.86-5.32-11.86-11.87
				l0.06-62.57h17.91v51.31c0,3.35,2.7,6.07,6.05,6.1l25.13,0.2c3.39,0.03,6.15-2.71,6.15-6.1V308.59z"/>
			<path class="st1" d="M631.1,365.38v-16.49l29.2,0c3.37,0,6.1-2.73,6.1-6.1v-11.14c0-3.37-2.73-6.1-6.1-6.1l-29.2,0v-16.8h41.22
				c6.55,0,11.86,5.31,11.86,11.86v33.03c0,6.56-5.33,11.88-11.89,11.86L631.1,365.38z"/>
			<path class="st1" d="M621.46,365.38c-5.84,0-11.53,0-17.43,0c0-24.73,0-49.44,0-74.33c5.77,0,11.51,0,17.43,0
				C621.46,315.77,621.46,340.42,621.46,365.38z"/>
			<path class="st1" d="M741.52,285.87c0,4.81,0,9.52,0,14.45c-5.82,0-11.64,0-17.67,0c0-4.71,0-9.47,0-14.45
				C729.63,285.87,735.44,285.87,741.52,285.87z"/>
			<path class="st1" d="M766.54,300.45c-5.94,0-11.69,0-17.59,0c0-4.88,0-9.64,0-14.58c5.82,0,11.62,0,17.59,0
				C766.54,290.68,766.54,295.44,766.54,300.45z"/>
			<path class="st1" d="M582.13,308.5h-39.32c-6.54,0-11.84,5.29-11.86,11.83l-0.05,24.65c0,2.02-1.64,3.65-3.66,3.65h-10.33
				c-2.02,0-3.66-1.64-3.66-3.66l0-36.47h-18.07l-0.03,36.47c0,2.02-1.64,3.66-3.66,3.66h-10.45c-2.02,0-3.66-1.64-3.66-3.66
				l-0.01-36.47h-18.07l-0.01,36.47c0,2.02-1.64,3.66-3.66,3.66h-10.22c-2.02,0-3.66-1.64-3.66-3.66l0-36.47h-18.02l-0.01,36.47
				c0,2.02-1.64,3.66-3.66,3.66h-5.7c-2.02,0-3.66-1.64-3.66-3.66l-0.01-53.92h-18.01l0,62.58c0,6.55,5.31,11.86,11.87,11.86
				l22.63-0.01c3.92-0.07,7.6-1.9,10.01-5.01l2.07-2.67c2.05,4.6,6.58,7.57,11.6,7.66l12.38-0.01c3.78-0.18,7.3-1.98,9.63-4.99
				l2.07-2.67c2.01,4.51,6.4,7.43,11.3,7.64l13.58-0.01c3.63-0.28,7-2.06,9.25-4.96l2.07-2.67c1.97,4.41,6.23,7.31,11,7.62
				l13.84-0.01c3.49-0.37,6.7-2.14,8.87-4.94l2.07-2.67h0c1.93,4.32,6.05,7.19,10.71,7.6l24.51-0.01c6.55,0,11.85-5.31,11.85-11.86
				v-33.16C593.98,313.81,588.67,308.5,582.13,308.5z M576.42,344.91c0,2.02-1.64,3.66-3.66,3.66h-20.13
				c-2.02,0-3.66-1.64-3.66-3.66v-15.96c0-2.02,1.64-3.66,3.66-3.66h20.13c2.02,0,3.66,1.64,3.66,3.66V344.91z"/>
		</g>
	</g>
</g>
</svg>
