<svg version="1.2" xmlns="http://www.w3.org/2000/svg" viewBox="0 0 1366 768" width="1366" height="768">
	<title>Logo-svg</title>
	<style>
		.s0 { fill: #00b2c4 } 
		.s1 { fill: #ffffff } 
	</style>
	<g id="Layer">
		<g id="Layer">
			<g id="Layer">
				<g id="Layer">
					<g id="Layer">
						<path id="Layer" class="s0" d="m1113.4 240.5c-27.5 0-54.4 0-81.8 0 0-22.4 0-44.7 0-67.4 27.2 0 54.4 0 81.8 0 0 22.5 0 44.7 0 67.4z"/>
					</g>
					<g id="Layer">
						<path id="Layer" class="s0" d="m1229.8 173.1c0 22.6 0 44.7 0 67.2-27.1 0-54 0-81.5 0 0-22.3 0-44.5 0-67.2 27.1 0 54.1 0 81.5 0z"/>
					</g>
					<g id="Layer">
						<path id="Layer" class="s0" d="m1230 280.4v219.3c0 24.7-20 44.7-44.8 44.7h-248.3c-24.7 0-44.8-20-44.8-44.7v-326.6h81.5v107.3h98.6v81.5h-98.6v78.7c0 12.3 10 22.3 22.4 22.3h130.1c12.4 0 22.4-10 22.4-22.3v-160.2z"/>
					</g>
				</g>
				<g id="Layer">
					<path id="Layer" class="s0" d="m440.9 503.4c-9.5-0.1-18.6-1.8-23.1-11.3-5-10.7-4.9-21.7 1.4-31.9 3.4-5.5 9.2-7.8 15.3-8.5 4.1-0.5 8.4-0.6 12.5 0 12 1.8 18.2 8.3 19.4 20.6 0.5 4.6 0.4 9.4-0.5 13.8-2.4 11.6-10.9 17.3-25 17.3z"/>
				</g>
			</g>
		</g>
		<g id="Layer">
			<g id="Layer">
				<path id="Layer" fill-rule="evenodd" class="s1" d="m838.1 472.6c0 12.4-10.1 22.5-22.5 22.5h-47c-9.7 0-18.5-5.7-22.5-14.5l-3.9 5c-4.7 6-11.8 9.5-19.4 9.5l-48.1 0.1v27.6c0 12.4-10.1 22.5-22.5 22.5h-38.1v-31.9c2.7 0 10.1 0 16.4 0 5.8 0 10.5-4.6 10.5-10.4v-7.8h-59.5c-12.4 0-22.5-10.1-22.5-22.5v-63.2c0-12.4 10.1-22.5 22.5-22.5h93.2v76.8h30c6.3 0 11.5-5.1 11.5-11.5l0.4-64.9h34.1v64.9c0 6.3 5.2 11.5 11.6 11.5h30.4c6.4 0 11.6-5.2 11.6-11.5v-64.9h33.8c0 0 0 85.2 0 85.2zm-197.1-53.3h-41.8c-3.4 0-6.2 2.7-6.2 6.2v32.1c0 3.4 2.8 6.2 6.2 6.2h41.8z"/>
				<path id="Layer" class="s1" d="m488.7 545.3v-31.8h10.8c5.9 0 10.7-4.9 10.7-10.8v-104.9h34.2v136.7c0 6-4.8 10.8-10.7 10.8z"/>
				<path id="Layer" class="s1" d="m691.8 538.5c0-9.1 0-18.2 0-27.5 11.2 0 22.2 0 33.5 0 0 9.1 0 18.1 0 27.5-11.1 0-22.1 0-33.5 0z"/>
				<path id="Layer" class="s1" d="m804.4 370.4c0-9.3 0-18.3 0-27.6 11.1 0 22 0 33.3 0 0 9 0 18.2 0 27.6-10.9 0-21.8 0-33.3 0z"/>
				<path id="Layer" class="s1" d="m544.2 380.7c-11.2 0-22.1 0-33.4 0 0-9.2 0-18.2 0-27.6 11 0 22.1 0 33.4 0 0 9 0 18.1 0 27.6z"/>
				<path id="Layer" class="s1" d="m739.7 510.8c11.2 0 22 0 33.2 0 0 9.3 0 18.4 0 27.8-11.1 0-22 0-33.2 0q0-13.9 0-27.8z"/>
			</g>
			<g id="Layer">
				<path id="Layer" class="s1" d="m804.4 216.2h33.4l0.1 85.4c0 12.4-10.1 22.5-22.5 22.5h-93.4c-12.4 0-22.5-10.1-22.5-22.5l0.1-118.7h34v97.3c0 6.4 5.1 11.5 11.4 11.6l47.7 0.4c6.4 0 11.7-5.2 11.7-11.6z"/>
				<path id="Layer" class="s1" d="m581.1 323.9v-31.3h55.3c6.4 0 11.6-5.1 11.6-11.5v-21.2c0-6.3-5.2-11.5-11.6-11.5h-55.3v-31.9h78.1c12.5 0 22.5 10.1 22.5 22.5v62.6c0 12.5-10.1 22.6-22.5 22.5z"/>
				<path id="Layer" class="s1" d="m562.8 323.9c-11.1 0-21.9 0-33 0 0-46.9 0-93.7 0-140.9 10.9 0 21.8 0 33 0 0 46.8 0 93.6 0 140.9z"/>
				<path id="Layer" class="s1" d="m790.5 173.1c0 9.2 0 18.1 0 27.4-11.1 0-22.1 0-33.6 0 0-8.9 0-17.9 0-27.4 11 0 22 0 33.6 0z"/>
				<path id="Layer" class="s1" d="m837.9 200.8c-11.3 0-22.2 0-33.4 0 0-9.3 0-18.3 0-27.7 11.1 0 22.1 0 33.4 0 0 9.2 0 18.2 0 27.7z"/>
				<path id="Layer" fill-rule="evenodd" class="s1" d="m510.7 238.5v62.9c0 12.4-10 22.5-22.5 22.5h-46.4c-8.9-0.8-16.7-6.2-20.3-14.4l-4 5.1c-4.1 5.3-10.2 8.6-16.8 9.3l-26.2 0.1c-9.1-0.6-17.1-6.1-20.9-14.5l-3.9 5.1c-4.3 5.5-10.7 8.8-17.5 9.4h-25.8c-9.3-0.4-17.6-5.9-21.4-14.5l-3.9 5.1c-4.5 5.7-11.1 9.1-18.3 9.4l-23.5 0.1c-9.5-0.2-18.1-5.8-22-14.6l-3.9 5.1c-4.6 5.9-11.5 9.4-19 9.5h-42.9c-12.4 0-22.5-10.1-22.5-22.5v-118.6h34.1l0.1 102.2c0 3.8 3.1 6.9 6.9 6.9h10.8c3.8 0 7-3.1 7-6.9v-69.1h34.1v69.1c0 3.8 3.2 6.9 7 6.9h19.4c3.8 0 6.9-3.1 6.9-6.9v-69.1h34.3v69.1c0 3.8 3.1 6.9 6.9 6.9h19.9c3.8 0 6.9-3.1 6.9-6.9l0.1-69.1h34.2v69.1c0 3.8 3.1 6.9 7 6.9h19.5c3.9 0 7-3 7-6.9l0.1-46.7c0-12.4 10.1-22.4 22.5-22.4h74.5c12.4 0 22.5 10 22.5 22.4zm-85.4 49.9c0 2 1.7 3.6 3.7 3.6h44.7c2.1 0 3.7-1.6 3.7-3.6v-36.9c0-2-1.6-3.6-3.7-3.6h-44.7c-2 0-3.7 1.6-3.7 3.6z"/>
			</g>
		</g>
	</g>
</svg>